/* XPM */
static char *pinball[]={
"32 32 13 1",
". c None",
"i c #000000",
"# c #000080",
"a c #0000c0",
"b c #0000ff",
"c c #0058c0",
"d c #0080ff",
"g c #00c000",
"h c #00ff00",
"f c #58a8ff",
"k c #808080",
"j c #c0c000",
"e c #ffffff",
"............########............",
".........####aaaaaa####.........",
".......###aaaaaaaaaaaa###.......",
"......##aaabbbbbbbaaabba##......",
".....##aaabbbbbbbbbcdddbb##.....",
"....##aabbbbbbbbbbcddeeedb##....",
"...##abbbbbbbbbbbbddfeeeedb##...",
"..##aabbbbbbbbbbbbcddfeeeedb##..",
"..#aabbbbbbbbbbbbbbcddfeeedbb#..",
".##aabbbbbbbbbbbbbbbbcdfffdda##.",
".#aabbbbbbbbbbbbbbbbbbcddddca##.",
".#abbbbbbbbbbbbbbbbbbbbcddcbaa#.",
"##abbbbbbbbbbbbbbbbbbbbbbcbbaa##",
"#aaaaaaaaaaaaabbbbbbbbbbbbbbbaa#",
"#aaaagggggggggaaabbbbbbbbbbbbaa#",
"#aagghhhhhhhhhggaaabbbbbbbbbbaa#",
"#ggghhhhhhhhhhhhggaaaabbbbbaaag#",
"#ghhhhiiiihhhhhhhgggaaaaaaaaggg#",
"#ghhhiieeiihhhhhhhhgggggggggghg#",
"#ghhhieeieiiihhhhhhhhhhhhhhhhh##",
".#ghhieieejiiihhhhhhhhhhhhhhhg#.",
".#ghhiieejjiiiiihhhhhhhhhhhhhg#.",
".##ghhiijjjiiiiijjjhhhhhhhhhg##.",
"..#ghhiiiiiiiekijjjjhhhhhhhhg#..",
"..##ghhiiiiieeeejjjjjhhhhhhg##..",
"...##ghiiiieeeeejjjjjhhhhhg##...",
"....##ghiiieeeieiijjhhhhhg##....",
".....##ghiijjjekiiihhhhhg##.....",
"......##ggjjjjjiiihhhhgg##......",
".......###jjjjjiihhggg###.......",
".........####jjgggg####.........",
"............########............"};
